<?xml version="1.0" encoding="UTF-8"?>
<svg width="1000" height="200" viewBox="0 0 1000 200" version="1.1" xmlns="http://www.w3.org/2000/svg">
  <g fill="#FFFFFF">
    <path d="M25,40 H90 C110,40 130,50 140,70 C150,90 150,120 140,140 C130,160 110,170 90,170 H70 V30 H25 V40 Z M70,130 H85 C95,130 105,125 110,115 C115,105 115,95 110,85 C105,75 95,70 85,70 H70 V130 Z" />
    <path d="M150,170 V40 H195 V170 H150 Z" />
    <path d="M220,40 H315 C335,40 350,50 360,65 C370,80 370,100 360,115 C352,127 340,134 330,137 L380,170 H323 L285,140 H265 V170 H220 V40 Z M265,110 H300 C307,110 312,107 315,100 C318,93 318,87 315,80 C312,73 307,70 300,70 H265 V110 Z" />
    <path d="M390,170 V40 H480 C500,40 515,50 525,65 C535,80 535,100 525,115 C515,130 500,140 480,140 H435 V170 H390 Z M435,110 H470 C477,110 482,107 485,100 C488,93 488,87 485,80 C482,73 477,70 470,70 H435 V110 Z" />
    <path d="M540,40 H630 C650,40 665,50 675,65 C685,80 685,100 675,115 C665,130 650,140 630,140 H585 V170 H540 V40 Z M585,110 H620 C627,110 632,107 635,100 C638,93 638,87 635,80 C632,73 627,70 620,70 H585 V110 Z" />
    <path d="M695,40 H740 V110 L815,40 H870 L790,105 L875,170 H820 L740,105 V170 H695 V40 Z" />
    <path d="M880,40 H970 L1000,110 L970,170 H900 L932,115 L900,70 H865 L880,40 Z" />
    <path d="M970,40 H980 C995,40 1000,55 995,70 L965,130 C960,145 945,170 920,170 H875 L900,125 H915 C922,125 925,120 927,115 L950,70 H915 L930,40 H970 Z" />
  </g>
</svg>