<?xml version="1.0" encoding="UTF-8" standalone="no"?>
<svg width="300" height="300" viewBox="0 0 300 300" fill="none" xmlns="http://www.w3.org/2000/svg">
  <!-- CPU Base -->
  <rect x="50" y="50" width="200" height="200" rx="10" fill="#B0B0B0" stroke="#909090" stroke-width="2"/>
  
  <!-- CPU Heat Spreader -->
  <rect x="65" y="65" width="170" height="170" rx="5" fill="#D4D4D4" stroke="#909090" stroke-width="1"/>
  
  <!-- Intel Logo -->
  <circle cx="150" cy="150" r="40" fill="#0071C5"/>
  <text x="150" y="158" font-family="Arial" font-size="10" text-anchor="middle" fill="white">intel</text>
  
  <!-- CPU Model Text -->
  <text x="150" y="120" font-family="Arial" font-size="14" font-weight="bold" text-anchor="middle" fill="#333333">Core i5</text>
  <text x="150" y="190" font-family="Arial" font-size="14" font-weight="bold" text-anchor="middle" fill="#333333">14400F</text>
  
  <!-- CPU Pins/Contacts -->
  <g transform="translate(70, 250)">
    <rect x="0" y="0" width="160" height="10" fill="#B0B0B0" stroke="#909090" stroke-width="1"/>
    <!-- Pin markings -->
    <g fill="#333333">
      <rect x="10" y="2" width="2" height="6" />
      <rect x="20" y="2" width="2" height="6" />
      <rect x="30" y="2" width="2" height="6" />
      <rect x="40" y="2" width="2" height="6" />
      <rect x="50" y="2" width="2" height="6" />
      <rect x="60" y="2" width="2" height="6" />
      <rect x="70" y="2" width="2" height="6" />
      <rect x="80" y="2" width="2" height="6" />
      <rect x="90" y="2" width="2" height="6" />
      <rect x="100" y="2" width="2" height="6" />
      <rect x="110" y="2" width="2" height="6" />
      <rect x="120" y="2" width="2" height="6" />
      <rect x="130" y="2" width="2" height="6" />
      <rect x="140" y="2" width="2" height="6" />
      <rect x="150" y="2" width="2" height="6" />
    </g>
  </g>
  
  <!-- Corner Notches -->
  <path d="M 50,70 L 70,70 L 70,50" fill="none" stroke="#909090" stroke-width="2"/>
  <path d="M 230,50 L 230,70 L 250,70" fill="none" stroke="#909090" stroke-width="2"/>
  <path d="M 50,230 L 70,230 L 70,250" fill="none" stroke="#909090" stroke-width="2"/>
  <path d="M 230,250 L 230,230 L 250,230" fill="none" stroke="#909090" stroke-width="2"/>
</svg>