<?xml version="1.0" encoding="UTF-8"?>
<svg width="200" height="200" viewBox="0 0 200 200" xmlns="http://www.w3.org/2000/svg">
  <defs>
    <linearGradient id="bgGradient" x1="0%" y1="0%" x2="100%" y2="100%">
      <stop offset="0%" stop-color="#9c27b0" stop-opacity="0.1"/>
      <stop offset="100%" stop-color="#673ab7" stop-opacity="0.1"/>
    </linearGradient>
  </defs>
  
  <!-- Background -->
  <rect width="200" height="200" fill="url(#bgGradient)"/>
  
  <!-- GPU Card -->
  <g transform="translate(25, 60)">
    <!-- PCIe Connector -->
    <rect x="0" y="70" width="150" height="10" rx="2" fill="#111111" stroke="#333333" stroke-width="1"/>
    <rect x="10" y="70" width="10" height="10" fill="#222222"/>
    <rect x="30" y="70" width="10" height="10" fill="#222222"/>
    <rect x="50" y="70" width="10" height="10" fill="#222222"/>
    <rect x="70" y="70" width="10" height="10" fill="#222222"/>
    
    <!-- Card Body -->
    <rect x="0" y="0" width="150" height="70" rx="2" fill="#222222" stroke="#333333" stroke-width="1"/>
    
    <!-- Heatsink and Fans -->
    <rect x="10" y="10" width="130" height="50" rx="2" fill="#1a1a1a" stroke="#333333" stroke-width="1"/>
    
    <!-- Fan 1 -->
    <circle cx="50" cy="35" r="20" fill="#111111" stroke="#333333" stroke-width="1"/>
    <circle cx="50" cy="35" r="18" fill="none" stroke="#444444" stroke-width="1" stroke-dasharray="2,2"/>
    <circle cx="50" cy="35" r="5" fill="#333333"/>
    
    <!-- Fan 2 -->
    <circle cx="100" cy="35" r="20" fill="#111111" stroke="#333333" stroke-width="1"/>
    <circle cx="100" cy="35" r="18" fill="none" stroke="#444444" stroke-width="1" stroke-dasharray="2,2"/>
    <circle cx="100" cy="35" r="5" fill="#333333"/>
    
    <!-- RTX Branding -->
    <rect x="20" y="55" width="30" height="10" rx="1" fill="#9c27b0" opacity="0.8"/>
    <text x="24" y="63" font-family="Arial" font-size="7" font-weight="bold" fill="white">RTX</text>
  </g>
</svg>