<?xml version="1.0" encoding="UTF-8"?>
<svg width="200" height="200" viewBox="0 0 200 200" xmlns="http://www.w3.org/2000/svg">
  <defs>
    <linearGradient id="bgGradient" x1="0%" y1="0%" x2="100%" y2="100%">
      <stop offset="0%" stop-color="#00796b" stop-opacity="0.1"/>
      <stop offset="100%" stop-color="#4caf50" stop-opacity="0.1"/>
    </linearGradient>
  </defs>
  
  <!-- Background -->
  <rect width="200" height="200" fill="url(#bgGradient)"/>
  
  <!-- PC Case -->
  <g transform="translate(30, 35)">
    <!-- Main Case -->
    <rect x="0" y="0" width="140" height="130" rx="2" fill="#1a1a1a" stroke="#333333" stroke-width="1"/>
    
    <!-- Front Panel -->
    <rect x="0" y="0" width="30" height="130" rx="1" fill="#252525" stroke="#333333" stroke-width="1"/>
    
    <!-- Power Button -->
    <circle cx="15" cy="15" r="5" fill="none" stroke="#444444" stroke-width="1"/>
    <circle cx="15" cy="15" r="2" fill="#4caf50"/>
    
    <!-- Drive Bays -->
    <rect x="6" y="30" width="18" height="4" rx="1" fill="#333333"/>
    <rect x="6" y="38" width="18" height="4" rx="1" fill="#333333"/>
    <rect x="6" y="46" width="18" height="4" rx="1" fill="#333333"/>
    
    <!-- Side Panel (Professional Look) -->
    <rect x="30" y="10" width="100" height="110" rx="1" fill="#111111" opacity="0.7" stroke="#333333" stroke-width="1"/>
    
    <!-- Internal Components Suggestion -->
    <rect x="45" y="25" width="70" height="15" rx="1" fill="#4caf50" opacity="0.2"/>
    <rect x="45" y="50" width="70" height="25" rx="1" fill="#00796b" opacity="0.2"/>
    <rect x="45" y="85" width="70" height="10" rx="1" fill="#4caf50" opacity="0.2"/>
  </g>
</svg>